<svg width="56" height="50" viewBox="0 0 56 50" fill="none" xmlns="http://www.w3.org/2000/svg">
<rect x="15" y="9" width="27" height="32" fill="white"/>
<path d="M32.4236 19.668C32.4236 17.5098 30.9069 16.3184 28.243 16.3184H23.343V23.2715H27.475C30.6639 23.2617 32.4236 21.9727 32.4236 19.668ZM50.2639 18.418C49.3403 15.4004 49.2042 11.6992 49.3111 8.83789C49.418 5.85938 47.1042 3.125 43.993 3.125H12.0264C8.90554 3.125 6.60138 5.86914 6.70832 8.83789C6.80554 11.6992 6.67915 15.4004 5.75554 18.418C4.82221 21.4453 3.25693 23.3594 0.680542 23.6035V26.3867C3.24721 26.6309 4.82221 28.5449 5.75554 31.5723C6.67915 34.5898 6.81526 38.291 6.70832 41.1523C6.60138 44.1309 8.91526 46.8652 12.0264 46.8652H43.9833C47.1042 46.8652 49.4083 44.1211 49.3014 41.1523C49.2042 38.291 49.3305 34.5898 50.2542 31.5723C51.1875 28.5449 52.7528 26.6309 55.3194 26.3867V23.6035C52.7625 23.3594 51.1875 21.4453 50.2639 18.418ZM29.1861 36.6309H19.668V13.3594H29.1375C33.3472 13.3594 36.1083 15.6445 36.1083 19.1602C36.1083 21.6309 34.2514 23.8379 31.8792 24.2188V24.3457C35.1069 24.6973 37.275 26.9434 37.275 30.0391C37.275 34.1504 34.2319 36.6309 29.1861 36.6309ZM28.2139 26.0156H23.343V33.6719H28.4278C31.7528 33.6719 33.5125 32.334 33.5125 29.8145C33.5125 27.3047 31.7042 26.0156 28.2139 26.0156Z" fill="#7611F7"/>
</svg>
