<svg width="43" height="30" viewBox="0 0 43 30" fill="none" xmlns="http://www.w3.org/2000/svg">
<path d="M0.474743 12.2646L20.7484 22.8648C20.874 22.931 21.0138 22.9656 21.1557 22.9656C21.2976 22.9656 21.4374 22.931 21.563 22.8648L41.837 12.2646C41.98 12.1901 42.0997 12.0778 42.1833 11.9398C42.2669 11.8018 42.3111 11.6435 42.3111 11.4821C42.3111 11.3206 42.2669 11.1623 42.1833 11.0243C42.0997 10.8863 41.98 10.774 41.837 10.6995L21.563 0.0993004C21.4368 0.0341004 21.2968 0 21.1548 0C21.0128 0 20.8728 0.0341004 20.7466 0.0993004L0.472994 10.6995C0.330292 10.7742 0.210774 10.8868 0.127434 11.0248C0.0440945 11.1629 0.00012531 11.3212 0.000305729 11.4826C0.000486147 11.644 0.0448106 11.8022 0.128459 11.9401C0.212107 12.0779 0.331874 12.1902 0.474743 12.2646Z" fill="#FFEA09"/>
<path d="M41.8368 17.7346L38.4818 15.9809L22.3774 24.4001C22.0011 24.5968 21.5831 24.6998 21.1587 24.7004C20.7343 24.701 20.316 24.5992 19.9392 24.4036L3.82901 15.9802L0.474494 17.7339C0.331471 17.8084 0.21159 17.9207 0.127919 18.0588C0.0442486 18.1968 0 18.3552 0 18.5167C0 18.6782 0.0442486 18.8366 0.127919 18.9747C0.21159 19.1127 0.331471 19.2251 0.474494 19.2995L20.7481 29.8992C20.8737 29.9654 21.0135 30 21.1554 30C21.2973 30 21.4371 29.9654 21.5627 29.8992L41.8368 19.2995C41.9797 19.2249 42.0994 19.1125 42.183 18.9745C42.2666 18.8365 42.3108 18.6781 42.3108 18.5167C42.3108 18.3553 42.2666 18.1969 42.183 18.0589C42.0994 17.9209 41.9797 17.8092 41.8368 17.7346Z" fill="#F4A21E"/>
</svg>
